<svg xmlns="http://www.w3.org/2000/svg" viewBox="0 0 300 300" role="img" aria-label="AOT crest item"><defs><linearGradient id="bg" x1="0" y1="0" x2="1" y2="1"><stop stop-color="#fff0f5"/><stop offset=".55" stop-color="#ffd9b3"/><stop offset="1" stop-color="#b8d9ff"/></linearGradient><linearGradient id="m" x1="0" y1="0" x2="0" y2="1"><stop stop-color="#fff6a2"/><stop offset="1" stop-color="#ff6457"/></linearGradient><filter id="s"><feDropShadow dx="0" dy="8" stdDeviation="6" flood-color="#6f3a3a" flood-opacity=".3"/></filter><style>.t{font-family:'Prompt',sans-serif;font-weight:900}</style></defs><rect x="14" y="14" width="272" height="272" rx="34" fill="url(#bg)" stroke="#ff9ccc" stroke-width="8"/><g filter="url(#s)"><path d="M150 52l78 35v57c0 49-31 78-78 104-47-26-78-55-78-104V87z" fill="url(#m)" stroke="#fff" stroke-width="8"/><path d="M107 111c28 16 48 38 59 71-32-4-56-20-75-48zM193 111c-28 16-48 38-59 71 32-4 56-20 75-48z" fill="#fff" opacity=".62"/><path d="M105 209l90-118M195 209L105 91" stroke="#61405a" stroke-width="9" stroke-linecap="round"/><path d="M150 82v142" stroke="#fff" stroke-width="6" opacity=".75"/></g><rect x="67" y="226" width="166" height="42" rx="21" fill="#fff"/><text class="t" x="123" y="255" font-size="24" fill="#b94b4b">AOT</text></svg>
