<svg xmlns="http://www.w3.org/2000/svg" viewBox="0 0 300 300" role="img" aria-label="Bloxspin cash item">
  <defs><linearGradient id="bg" x1="0" y1="0" x2="1" y2="1"><stop stop-color="#fff0fb"/><stop offset="1" stop-color="#dff8ff"/></linearGradient><linearGradient id="cash" x1="0" y1="0" x2="0" y2="1"><stop stop-color="#c9ff9e"/><stop offset="1" stop-color="#22bd62"/></linearGradient><filter id="s"><feDropShadow dx="0" dy="8" stdDeviation="5" flood-color="#6a4c90" flood-opacity=".28"/></filter><style>.t{font-family:'Prompt',sans-serif;font-weight:900}</style></defs><rect x="14" y="14" width="272" height="272" rx="34" fill="url(#bg)" stroke="#ff9ccc" stroke-width="8"/><g filter="url(#s)"><rect x="70" y="84" width="156" height="98" rx="17" fill="url(#cash)" stroke="#fff" stroke-width="7"/><rect x="55" y="105" width="156" height="98" rx="17" fill="#62dc7d" stroke="#fff" stroke-width="7"/><circle cx="133" cy="154" r="31" fill="#eaffc8"/><text class="t" x="120" y="166" font-size="38" fill="#25a85c">$</text><circle cx="94" cy="134" r="8" fill="#eaffc8"/><circle cx="174" cy="174" r="8" fill="#eaffc8"/></g><path d="M228 45l8 17 19 3-14 13 3 19-16-9-17 9 3-19-14-13 19-3zM52 54l5 11 12 2-9 8 2 12-10-6-10 6 2-12-9-8 12-2z" fill="#fff" stroke="#ff6fb3" stroke-width="3"/><rect x="60" y="226" width="180" height="42" rx="21" fill="#ff6fb3"/><text class="t" x="94" y="255" font-size="24" fill="#fff">BloxSpin</text></svg>
