<svg xmlns="http://www.w3.org/2000/svg" viewBox="0 0 300 300" role="img" aria-label="Dragon's Breath item"><defs><radialGradient id="bg" cx=".5" cy=".35" r=".75"><stop stop-color="#fff0cb"/><stop offset=".55" stop-color="#ff7a4b"/><stop offset="1" stop-color="#761542"/></radialGradient><linearGradient id="f" x1="0" y1="0" x2="0" y2="1"><stop stop-color="#fff7a1"/><stop offset=".45" stop-color="#ff6a2f"/><stop offset="1" stop-color="#bd183d"/></linearGradient><filter id="s"><feDropShadow dx="0" dy="8" stdDeviation="6" flood-color="#6b1231" flood-opacity=".35"/></filter><style>.t{font-family:'Prompt',sans-serif;font-weight:900}</style></defs><rect x="14" y="14" width="272" height="272" rx="34" fill="url(#bg)" stroke="#ffb46a" stroke-width="8"/><g filter="url(#s)"><path d="M150 40c35 47 25 69 10 92 32-17 58 18 36 53-18 29-52 43-86 31-42-15-53-61-27-94 9-12 24-23 24-48 19 12 27 31 24 50 25-22 25-52 19-84z" fill="url(#f)" stroke="#fff" stroke-width="7"/><path d="M151 113c21 29 9 48-4 64 24-7 33 19 17 34-15 14-44 11-54-10-13-27 11-45 41-88z" fill="#ffe66d"/><circle cx="129" cy="151" r="5" fill="#5c1722"/><circle cx="159" cy="151" r="5" fill="#5c1722"/><path d="M133 166c8 6 15 6 22 0" fill="none" stroke="#5c1722" stroke-width="4" stroke-linecap="round"/></g><rect x="49" y="226" width="202" height="42" rx="21" fill="#fff"/><text class="t" x="70" y="255" font-size="23" fill="#d9472c">Dragon's Breath</text></svg>
