<svg xmlns="http://www.w3.org/2000/svg" viewBox="0 0 300 300" role="img" aria-label="Gold Seed item"><defs><radialGradient id="bg" cx=".5" cy=".35" r=".7"><stop stop-color="#fff8cc"/><stop offset="1" stop-color="#f4c75d"/></radialGradient><linearGradient id="g" x1="0" y1="0" x2="0" y2="1"><stop stop-color="#fffbc2"/><stop offset=".5" stop-color="#ffd84e"/><stop offset="1" stop-color="#d99216"/></linearGradient><filter id="s"><feDropShadow dx="0" dy="9" stdDeviation="6" flood-color="#966212" flood-opacity=".32"/></filter><style>.t{font-family:'Prompt',sans-serif;font-weight:900}</style></defs><rect x="14" y="14" width="272" height="272" rx="34" fill="url(#bg)" stroke="#fff" stroke-width="8"/><g filter="url(#s)"><path d="M151 43c50 51 67 90 51 132-13 32-35 52-51 70-16-19-39-38-52-70-17-43 4-82 52-132z" fill="url(#g)" stroke="#fff" stroke-width="8"/><path d="M124 95h54l-18 102h-18z" fill="#fff" opacity=".3"/></g><g fill="#fff"><path d="M63 70l8 17 19 3-14 13 3 19-16-9-17 9 3-19-14-13 19-3z"/><path d="M219 65l6 13 14 2-10 10 2 14-12-7-13 7 3-14-10-10 14-2z"/></g><rect x="58" y="226" width="184" height="42" rx="21" fill="#fff"/><text class="t" x="96" y="255" font-size="24" fill="#c28a12">Gold Seed</text></svg>
