<svg xmlns="http://www.w3.org/2000/svg" viewBox="0 0 300 300" role="img" aria-label="Hypno Bloom item"><defs><radialGradient id="bg" cx=".5" cy=".35" r=".75"><stop stop-color="#f6e3ff"/><stop offset="1" stop-color="#6030b2"/></radialGradient><linearGradient id="petal" x1="0" y1="0" x2="0" y2="1"><stop stop-color="#ffb3f0"/><stop offset="1" stop-color="#8632d9"/></linearGradient><filter id="s"><feDropShadow dx="0" dy="8" stdDeviation="6" flood-color="#3f167a" flood-opacity=".35"/></filter><style>.t{font-family:'Prompt',sans-serif;font-weight:900}</style></defs><rect x="14" y="14" width="272" height="272" rx="34" fill="url(#bg)" stroke="#ffb6f0" stroke-width="8"/><g filter="url(#s)" transform="translate(150 139)"><path d="M0-82c25 28 22 55 0 77-22-22-25-49 0-77zM0 82c-25-28-22-55 0-77 22 22 25 49 0 77zM-82 0c28-25 55-22 77 0-22 22-49 25-77 0zM82 0c-28 25-55 22-77 0 22-22 49-25 77 0z" fill="url(#petal)" stroke="#fff" stroke-width="6"/><circle r="45" fill="#fff"/><path d="M-25 0c0-28 50-28 50 0 0 22-34 18-34 2 0-13 22-13 22 0" fill="none" stroke="#7c34c9" stroke-width="9" stroke-linecap="round"/></g><rect x="55" y="226" width="190" height="42" rx="21" fill="#fff"/><text class="t" x="80" y="255" font-size="24" fill="#8737d0">Hypno Bloom</text></svg>
