<svg xmlns="http://www.w3.org/2000/svg" viewBox="0 0 300 300" role="img" aria-label="Mega Seed item"><defs><radialGradient id="bg" cx=".5" cy=".35" r=".75"><stop stop-color="#dcf9ff"/><stop offset="1" stop-color="#7cb5ff"/></radialGradient><linearGradient id="g" x1="0" y1="0" x2="0" y2="1"><stop stop-color="#eaffff"/><stop offset=".45" stop-color="#3bbdff"/><stop offset="1" stop-color="#164dcb"/></linearGradient><filter id="s"><feDropShadow dx="0" dy="9" stdDeviation="6" flood-color="#184b9a" flood-opacity=".35"/></filter><style>.t{font-family:'Prompt',sans-serif;font-weight:900}</style></defs><rect x="14" y="14" width="272" height="272" rx="34" fill="url(#bg)" stroke="#fff" stroke-width="8"/><g filter="url(#s)"><path d="M151 42c50 53 66 92 49 132-13 31-35 51-50 70-17-20-42-39-53-71-15-43 7-82 54-131z" fill="url(#g)" stroke="#fff" stroke-width="8"/><path d="M151 57c12 68 12 122 0 164" stroke="#8be7ff" stroke-width="7" opacity=".5"/><circle cx="132" cy="145" r="7" fill="#062a60"/><circle cx="168" cy="145" r="7" fill="#062a60"/><path d="M137 162c9 8 18 8 27 0" fill="none" stroke="#062a60" stroke-width="5" stroke-linecap="round"/></g><path d="M62 69l7 15 17 2-12 12 3 17-15-8-15 8 3-17-12-12 17-2zM223 75l5 11 12 2-9 8 2 12-10-6-10 6 2-12-9-8 12-2z" fill="#fff"/><rect x="58" y="226" width="184" height="42" rx="21" fill="#fff"/><text class="t" x="91" y="255" font-size="24" fill="#2476db">Mega Seed</text></svg>
