<svg xmlns="http://www.w3.org/2000/svg" viewBox="0 0 300 300" role="img" aria-label="Rainbow Seed item"><defs><linearGradient id="bg" x1="0" y1="0" x2="1" y2="1"><stop stop-color="#fff1fb"/><stop offset="1" stop-color="#f8e4ff"/></linearGradient><linearGradient id="r" x1="0" y1="0" x2="1" y2="1"><stop stop-color="#ff4f6d"/><stop offset=".22" stop-color="#ffd85c"/><stop offset=".45" stop-color="#5be879"/><stop offset=".68" stop-color="#44c7ff"/><stop offset="1" stop-color="#b45cff"/></linearGradient><filter id="s"><feDropShadow dx="0" dy="9" stdDeviation="6" flood-color="#9e4bb0" flood-opacity=".32"/></filter><style>.t{font-family:'Prompt',sans-serif;font-weight:900}</style></defs><rect x="14" y="14" width="272" height="272" rx="34" fill="url(#bg)" stroke="#ff9ccc" stroke-width="8"/><g filter="url(#s)"><path d="M151 45c54 55 70 94 51 135-13 29-35 47-52 65-17-19-39-36-52-65-19-43 1-83 53-135z" fill="url(#r)" stroke="#fff" stroke-width="8"/><path d="M119 111c24-16 48-16 72 0M109 151c28-17 56-17 84 0M123 190c19-10 38-10 57 0" fill="none" stroke="#fff" stroke-width="8" opacity=".55" stroke-linecap="round"/></g><path d="M224 47l8 17 19 3-14 13 3 19-16-9-17 9 3-19-14-13 19-3z" fill="#ffd86b" stroke="#fff" stroke-width="3"/><rect x="58" y="226" width="184" height="42" rx="21" fill="#ff6fb3"/><text class="t" x="80" y="255" font-size="24" fill="#fff">Rainbow</text></svg>
