<svg xmlns="http://www.w3.org/2000/svg" viewBox="0 0 300 300" role="img" aria-label="Super Watering item"><defs><linearGradient id="bg" x1="0" y1="0" x2="1" y2="1"><stop stop-color="#fff1fb"/><stop offset="1" stop-color="#c8efff"/></linearGradient><linearGradient id="can" x1="0" y1="0" x2="0" y2="1"><stop stop-color="#d8fcff"/><stop offset="1" stop-color="#4cb7ff"/></linearGradient><filter id="s"><feDropShadow dx="0" dy="8" stdDeviation="6" flood-color="#4075a7" flood-opacity=".3"/></filter><style>.t{font-family:'Prompt',sans-serif;font-weight:900}</style></defs><rect x="14" y="14" width="272" height="272" rx="34" fill="url(#bg)" stroke="#ff9ccc" stroke-width="8"/><g filter="url(#s)"><path d="M88 118h107c15 0 27 12 27 27v43c0 23-19 42-42 42h-78c-23 0-42-19-42-42v-42c0-16 12-28 28-28z" fill="url(#can)" stroke="#fff" stroke-width="7"/><path d="M203 135l50-27 12 25-48 25z" fill="#7fd4ff" stroke="#fff" stroke-width="7"/><path d="M77 133c-47 6-47 75 0 81" fill="none" stroke="#fff" stroke-width="12"/><circle cx="124" cy="171" r="7" fill="#17456e"/><circle cx="163" cy="171" r="7" fill="#17456e"/><path d="M131 188c10 8 21 8 31 0" fill="none" stroke="#17456e" stroke-width="5" stroke-linecap="round"/><path d="M84 99h102" stroke="#fff" stroke-width="12" stroke-linecap="round"/><path d="M228 177c15 12 15 25 0 37-15-12-15-25 0-37zM255 157c12 10 12 20 0 30-12-10-12-20 0-30z" fill="#6CB8FF" stroke="#fff" stroke-width="4"/></g><rect x="44" y="226" width="212" height="42" rx="21" fill="#ff6fb3"/><text class="t" x="67" y="255" font-size="23" fill="#fff">Super Watering</text></svg>
