<svg xmlns="http://www.w3.org/2000/svg" viewBox="0 0 600 300" role="img" aria-label="AOT Revolution category">
  <defs><linearGradient id="sun" x1="0" y1="0" x2="0" y2="1"><stop stop-color="#ffd07a"/><stop offset=".45" stop-color="#a85172"/><stop offset="1" stop-color="#27213f"/></linearGradient><linearGradient id="fire" x1="0" y1="0" x2="0" y2="1"><stop stop-color="#fff6a5"/><stop offset=".45" stop-color="#ff6357"/><stop offset="1" stop-color="#7a1f48"/></linearGradient><filter id="s"><feDropShadow dx="0" dy="7" stdDeviation="5" flood-opacity=".35"/></filter><style>.t{font-family:'Prompt',sans-serif;font-weight:900}</style></defs>
  <rect width="600" height="300" rx="18" fill="url(#sun)"/><circle cx="466" cy="89" r="57" fill="#ffd86b" opacity=".72"/><path d="M0 208h600v92H0z" fill="#3a2842"/><path d="M18 137h85v71H18zm105-28h78v99h-78zm100 45h72v54h-72zm95-35h82v89h-82zm106 18h77v71h-77zm96-30h65v101h-65z" fill="#5a3a50" stroke="#211a2d" stroke-width="4"/>
  <g stroke="#fff" stroke-width="5" stroke-linecap="round" opacity=".9"><path d="M113 228l82-120M128 108l82 120"/><path d="M385 224l83-119M404 105l82 119"/></g>
  <g filter="url(#s)"><path d="M300 59l45 77 89 15-63 60 15 87-86-43-86 43 15-87-63-60 89-15z" fill="url(#fire)" stroke="#fff" stroke-width="7" opacity=".9"/><path d="M242 192c38-17 78-17 116 0-29 20-75 20-116 0z" fill="#fff" opacity=".35"/></g>
  <text class="t" x="122" y="130" font-size="52" fill="none" stroke="#fff" stroke-width="11">AOT</text><text class="t" x="122" y="130" font-size="52" fill="#ff6262" stroke="#42213c" stroke-width="3">AOT</text><text class="t" x="170" y="193" font-size="59" fill="none" stroke="#fff" stroke-width="11">REVOLUTION</text><text class="t" x="170" y="193" font-size="59" fill="#ffd66e" stroke="#42213c" stroke-width="3">REVOLUTION</text>
</svg>
