<svg xmlns="http://www.w3.org/2000/svg" viewBox="0 0 600 300" role="img" aria-label="Blox Spin category">
  <defs><linearGradient id="bg" x1="0" y1="0" x2="1" y2="1"><stop stop-color="#30205b"/><stop offset=".55" stop-color="#893d91"/><stop offset="1" stop-color="#ff7bbd"/></linearGradient><linearGradient id="gold" x1="0" y1="0" x2="0" y2="1"><stop stop-color="#fff59c"/><stop offset="1" stop-color="#ffb13d"/></linearGradient><filter id="s"><feDropShadow dx="0" dy="6" stdDeviation="4" flood-opacity=".35"/></filter><style>.t{font-family:'Prompt',sans-serif;font-weight:900}</style></defs>
  <rect width="600" height="300" rx="18" fill="url(#bg)"/>
  <path d="M0 220c90-50 160 10 260-35 130-59 220-46 340 2v113H0z" fill="#fff" opacity=".14"/>
  <g filter="url(#s)" transform="translate(56 46)"><circle cx="95" cy="95" r="78" fill="#fff" stroke="#ff6fb3" stroke-width="8"/><path d="M95 17a78 78 0 0 1 67 39l-67 39z" fill="#ff6fb3"/><path d="M162 56a78 78 0 0 1 0 78l-67-39z" fill="#6CB8FF"/><path d="M162 134a78 78 0 0 1-67 39V95z" fill="#ffd86b"/><path d="M95 173a78 78 0 0 1-67-39l67-39z" fill="#8be3bc"/><path d="M28 134a78 78 0 0 1 0-78l67 39z" fill="#b98cff"/><path d="M28 56a78 78 0 0 1 67-39v78z" fill="#ff9ccc"/><circle cx="95" cy="95" r="27" fill="#fff"/><path d="M95-7l18 33H77z" fill="#fff2a8" stroke="#fff" stroke-width="4"/></g>
  <g fill="url(#gold)" stroke="#fff" stroke-width="4"><circle cx="455" cy="76" r="25"/><circle cx="509" cy="126" r="20"/><circle cx="430" cy="196" r="23"/></g>
  <text class="t" x="230" y="128" font-size="62" fill="none" stroke="#fff" stroke-width="12" stroke-linejoin="round">BLOX</text><text class="t" x="230" y="128" font-size="62" fill="#7ee1ff" stroke="#321b54" stroke-width="3">BLOX</text><text class="t" x="286" y="194" font-size="76" fill="none" stroke="#fff" stroke-width="12" stroke-linejoin="round">SPIN</text><text class="t" x="286" y="194" font-size="76" fill="#ff4f58" stroke="#321b54" stroke-width="3">SPIN</text>
  <path d="M516 42l8 17 19 3-14 13 3 19-16-9-17 9 3-19-14-13 19-3z" fill="#fff" opacity=".9"/>
</svg>
