<svg xmlns="http://www.w3.org/2000/svg" viewBox="0 0 600 300" role="img" aria-label="Grow a Garden 2 category">
  <defs><linearGradient id="sky" x1="0" y1="0" x2="0" y2="1"><stop stop-color="#a8e9ff"/><stop offset=".6" stop-color="#eaffd6"/><stop offset="1" stop-color="#9be58a"/></linearGradient><linearGradient id="leaf" x1="0" y1="0" x2="1" y2="1"><stop stop-color="#b6ff86"/><stop offset="1" stop-color="#1dbd68"/></linearGradient><filter id="s"><feDropShadow dx="0" dy="6" stdDeviation="4" flood-color="#3d8d68" flood-opacity=".3"/></filter><style>.t{font-family:'Prompt',sans-serif;font-weight:900}</style></defs>
  <rect width="600" height="300" rx="18" fill="url(#sky)"/><path d="M0 226c120-52 222-24 335-53 104-26 169 6 265 31v96H0z" fill="#5fd279"/><path d="M0 252h600v48H0z" fill="#77d35f"/>
  <g filter="url(#s)"><path d="M74 212c4-52 33-73 74-81-4 49-30 80-74 81z" fill="url(#leaf)" stroke="#fff" stroke-width="4"/><path d="M130 212c10-51 43-69 85-71-10 47-40 75-85 71z" fill="#3ecb73" stroke="#fff" stroke-width="4"/><path d="M93 211c15-37 42-51 75-49-15 35-40 52-75 49z" fill="#b5ff73" opacity=".8"/></g>
  <g transform="translate(424 122)" filter="url(#s)"><path d="M28 24c13-27 49-26 62 0 23 5 39 25 36 50-4 33-31 51-67 51S-3 107-7 74c-3-25 13-45 35-50z" fill="#fff"/><path d="M50 64h33v57H50z" fill="#ffb84d"/><path d="M66 48c-14-33 23-33 0 0z" fill="#ff7f4d"/><circle cx="52" cy="75" r="4" fill="#4b3a2e"/><circle cx="81" cy="75" r="4" fill="#4b3a2e"/><path d="M57 88c7 6 13 6 19 0" fill="none" stroke="#4b3a2e" stroke-width="4" stroke-linecap="round"/></g>
  <text class="t" x="165" y="115" font-size="50" fill="none" stroke="#fff" stroke-width="11" stroke-linejoin="round">GROW A</text><text class="t" x="165" y="115" font-size="50" fill="#34bd60" stroke="#395a2d" stroke-width="2">GROW A</text><text class="t" x="145" y="177" font-size="58" fill="none" stroke="#fff" stroke-width="11">GARDEN 2</text><text class="t" x="145" y="177" font-size="58" fill="#ff7d47" stroke="#4b7134" stroke-width="2">GARDEN 2</text>
  <path d="M70 58l8 17 19 3-14 13 3 19-16-9-17 9 3-19-14-13 19-3z" fill="#fff8a8"/>
</svg>
