<svg xmlns="http://www.w3.org/2000/svg" viewBox="0 0 200 200" role="img" aria-label="Cute O-Hayo mascot">
  <defs><linearGradient id="h" x1="0" y1="0" x2="0" y2="1"><stop stop-color="#fff4fb"/><stop offset="1" stop-color="#ff9ccc"/></linearGradient><filter id="s" x="-20%" y="-20%" width="140%" height="150%"><feDropShadow dx="0" dy="7" stdDeviation="5" flood-color="#ad5b91" flood-opacity=".28"/></filter></defs>
  <rect width="200" height="200" rx="42" fill="#F6F7FF"/>
  <g filter="url(#s)">
    <path d="M66 39c-18-49 26-45 39-5 14-40 58-44 40 5 31 13 49 40 46 74-4 49-43 78-91 78S13 161 9 112c-3-34 16-61 57-73z" fill="#fff" stroke="#7b465e" stroke-width="5"/>
    <path d="M50 87c0-37 25-61 57-61s57 24 57 61v65c-35 27-82 27-114 0z" fill="url(#h)"/>
    <path d="M69 47c-9-24 9-28 20-4l8 20H77zM132 43c12-24 29-20 20 5l-9 15h-20z" fill="#ffd1e7"/>
    <circle cx="75" cy="102" r="8" fill="#4d2a3b"/><circle cx="125" cy="102" r="8" fill="#4d2a3b"/>
    <path d="M93 115c7 8 15 8 22 0" fill="none" stroke="#4d2a3b" stroke-width="5" stroke-linecap="round"/>
    <circle cx="54" cy="122" r="11" fill="#ff75ae"/><circle cx="146" cy="122" r="11" fill="#ff75ae"/>
    <path d="M128 37c18-21 43-7 34 14-7 18-31 12-34-14z" fill="#ff6fb3" stroke="#fff" stroke-width="5"/><circle cx="150" cy="40" r="6" fill="#ffe174"/>
    <path d="M72 151h56c17 0 31 14 31 31v7H41v-7c0-17 14-31 31-31z" fill="#6CB8FF"/>
    <path d="M59 160c29 17 58 17 87 0" fill="none" stroke="#fff" stroke-width="7" opacity=".55"/>
  </g>
</svg>
