<svg xmlns="http://www.w3.org/2000/svg" viewBox="0 0 400 300" role="img" aria-label="Kawaii spin wheel minigame">
  <defs><linearGradient id="bg" x1="0" y1="0" x2="1" y2="1"><stop stop-color="#fff0fb"/><stop offset="1" stop-color="#d9f3ff"/></linearGradient><filter id="s"><feDropShadow dx="0" dy="7" stdDeviation="5" flood-color="#8554a0" flood-opacity=".25"/></filter></defs>
  <rect width="400" height="300" rx="28" fill="url(#bg)"/>
  <g filter="url(#s)" transform="translate(0 4)">
    <circle cx="185" cy="143" r="92" fill="#fff" stroke="#ff6fb3" stroke-width="9"/>
    <path d="M185 51a92 92 0 0 1 80 46l-80 46z" fill="#ff8cc8"/><path d="M265 97a92 92 0 0 1 0 92l-80-46z" fill="#6CB8FF"/><path d="M265 189a92 92 0 0 1-80 46v-92z" fill="#b98cff"/><path d="M185 235a92 92 0 0 1-80-46l80-46z" fill="#ffd86b"/><path d="M105 189a92 92 0 0 1 0-92l80 46z" fill="#8de7c8"/><path d="M105 97a92 92 0 0 1 80-46v92z" fill="#ffb0d6"/>
    <circle cx="185" cy="143" r="34" fill="#fff" stroke="#754674" stroke-width="5"/><circle cx="174" cy="136" r="4" fill="#4a2a40"/><circle cx="196" cy="136" r="4" fill="#4a2a40"/><path d="M176 151c7 6 14 6 20 0" fill="none" stroke="#4a2a40" stroke-width="4" stroke-linecap="round"/>
    <path d="M185 21l21 38h-42z" fill="#ff4fa6" stroke="#fff" stroke-width="5"/>
    <rect x="286" y="151" width="72" height="62" rx="13" fill="#ff85bd" stroke="#fff" stroke-width="6"/><path d="M286 164l36 20 36-20" fill="#ffd3ea"/><rect x="315" y="139" width="14" height="83" fill="#ffe174"/><rect x="275" y="176" width="94" height="17" rx="6" fill="#6CB8FF"/>
  </g>
  <path d="M53 52l7 15 17 2-12 12 3 17-15-8-15 8 3-17-12-12 17-2zM334 48c-9-7-18-12-18-22 0-9 11-12 18-3 8-9 19-6 19 3 0 10-9 15-19 22z" fill="#fff" stroke="#ff9ccc" stroke-width="3"/>
</svg>
