<svg xmlns="http://www.w3.org/2000/svg" viewBox="0 0 280 96" role="img" aria-label="ติดต่อเรา">
  <defs>
    <linearGradient id="bg" x1="0" y1="0" x2="1" y2="1">
      <stop stop-color="#e8fff5"/>
      <stop offset="1" stop-color="#c8f5e8"/>
    </linearGradient>
    <linearGradient id="icon" x1="0" y1="0" x2="1" y2="1">
      <stop stop-color="#8de7c8"/>
      <stop offset="1" stop-color="#6CB8FF"/>
    </linearGradient>
    <filter id="s"><feDropShadow dx="0" dy="4" stdDeviation="3" flood-color="#3b86a0" flood-opacity=".25"/></filter>
    <style>.t{font-family:'Prompt',sans-serif;font-weight:800}</style>
  </defs>
  <rect width="280" height="96" rx="20" fill="url(#bg)" stroke="#fff" stroke-width="3"/>
  <circle cx="48" cy="48" r="30" fill="url(#icon)" stroke="#fff" stroke-width="4" filter="url(#s)"/>
  <path d="M28 36h40c6 0 10 4 10 10v12c0 6-4 10-10 10H42l-10 10V58H28c-6 0-10-4-10-10V46c0-6 4-10 10-10z" fill="#fff"/>
  <circle cx="36" cy="52" r="3" fill="#6CB8FF"/><circle cx="48" cy="52" r="3" fill="#ff6fb3"/><circle cx="60" cy="52" r="3" fill="#b98cff"/>
  <text class="t" x="92" y="44" font-size="20" fill="#2a9d8a">ติดต่อเรา</text>
  <text class="t" x="92" y="66" font-size="13" fill="#5ab8a8" font-weight="600">Discord · FAQ</text>
  <path d="M248 48l6 6 12-12" fill="none" stroke="#6CB8FF" stroke-width="4" stroke-linecap="round" stroke-linejoin="round"/>
</svg>
