<svg xmlns="http://www.w3.org/2000/svg" viewBox="0 0 1200 630" role="img" aria-label="O-Hayo Shop social image">
  <defs><linearGradient id="bg" x1="0" y1="0" x2="1" y2="1"><stop stop-color="#ffd3ed"/><stop offset=".55" stop-color="#efe0ff"/><stop offset="1" stop-color="#bfe9ff"/></linearGradient><linearGradient id="p" x1="0" y1="0" x2="0" y2="1"><stop stop-color="#fff"/><stop offset=".45" stop-color="#ff8bc7"/><stop offset="1" stop-color="#ff4fa6"/></linearGradient><filter id="s"><feDropShadow dx="0" dy="10" stdDeviation="8" flood-color="#97457e" flood-opacity=".28"/></filter><style>.t{font-family:'Prompt',sans-serif;font-weight:900}</style></defs>
  <rect width="1200" height="630" fill="url(#bg)"/>
  <path d="M0 452c169-74 313 26 475-40 179-72 343-129 520-39 71 36 139 41 205 24v233H0z" fill="#fff" opacity=".35"/>
  <g fill="#fff" opacity=".9"><path d="M86 96l11 23 25 4-18 17 4 25-22-12-22 12 4-25-18-17 25-4z"/><path d="M1027 96l13 27 29 4-21 21 5 29-26-14-26 14 5-29-21-21 29-4z"/><circle cx="101" cy="502" r="10"/><circle cx="1116" cy="423" r="8"/></g>
  <g filter="url(#s)">
    <g transform="translate(102 135) scale(1.55)">
      <path d="M66 39c-18-49 26-45 39-5 14-40 58-44 40 5 31 13 49 40 46 74-4 49-43 78-91 78S13 161 9 112c-3-34 16-61 57-73z" fill="#fff" stroke="#7b465e" stroke-width="5"/>
      <path d="M50 87c0-37 25-61 57-61s57 24 57 61v65c-35 27-82 27-114 0z" fill="#ffb6d9"/>
      <circle cx="75" cy="102" r="8" fill="#4d2a3b"/><circle cx="125" cy="102" r="8" fill="#4d2a3b"/><path d="M93 115c7 8 15 8 22 0" fill="none" stroke="#4d2a3b" stroke-width="5" stroke-linecap="round"/><circle cx="54" cy="122" r="11" fill="#ff75ae"/><circle cx="146" cy="122" r="11" fill="#ff75ae"/><path d="M128 37c18-21 43-7 34 14-7 18-31 12-34-14z" fill="#ff6fb3" stroke="#fff" stroke-width="5"/>
    </g>
    <text class="t" x="420" y="270" font-size="108" fill="none" stroke="#fff" stroke-width="18" stroke-linejoin="round">O-Hayo Shop</text><text class="t" x="420" y="270" font-size="108" fill="url(#p)" stroke="#713e76" stroke-width="4">O-Hayo Shop</text>
    <text class="t" x="428" y="350" font-size="48" fill="#684184">จำหน่าย ID Roblox และ Item</text>
    <rect x="430" y="395" width="404" height="74" rx="37" fill="#fff" opacity=".86"/><text class="t" x="472" y="444" font-size="30" fill="#ff5aad">น่ารัก ปลอดภัย รวดเร็ว</text>
  </g>
</svg>
